<?xml version="1.0" encoding="utf-8"?>
<!-- Generator: Adobe Illustrator 15.1.0, SVG Export Plug-In . SVG Version: 6.00 Build 0)  -->
<!DOCTYPE svg PUBLIC "-//W3C//DTD SVG 1.1//EN" "http://www.w3.org/Graphics/SVG/1.1/DTD/svg11.dtd">
<svg version="1.1" xmlns="http://www.w3.org/2000/svg" xmlns:xlink="http://www.w3.org/1999/xlink" x="0px" y="0px" width="141px"
	 height="43px" viewBox="0 0 141 43" enable-background="new 0 0 141 43" xml:space="preserve">
<g id="Layer_1_2_" enable-background="new    ">
	<g id="Layer_1_1_">
		<g>
			<path fill-rule="evenodd" clip-rule="evenodd" fill="#F39900" d="M86.219,31.217c-9.107,3.865-19.01,5.728-28.012,5.728
				c-13.349,0-26.271-3.658-36.723-9.738c-0.912-0.536-1.595,0.4-0.834,1.089c9.685,8.747,22.485,14.006,36.704,14.006
				c10.14,0,21.919-3.196,30.044-9.186C88.744,32.118,87.594,30.632,86.219,31.217z"/>
		</g>
	</g>
</g>
<g id="Layer_2_1_" enable-background="new    ">
	<g id="Layer_2">
		<g>
			<path fill-rule="evenodd" clip-rule="evenodd" fill="#F39900" d="M94.246,26.608c-0.889-1.096-8.51-2.038-13.154,1.23
				c-0.717,0.499-0.596,1.193,0.201,1.095c2.618-0.31,8.449-1.01,9.484,0.317c1.04,1.333-1.156,6.817-2.138,9.264
				c-0.298,0.743,0.342,1.041,1.013,0.481C94.016,35.35,95.135,27.711,94.246,26.608z"/>
		</g>
	</g>
</g>
<g id="Layer_3_1_" enable-background="new    ">
	<g id="Layer_3">
		<g>
			<path fill-rule="evenodd" clip-rule="evenodd" fill="#1C1919" d="M96.998,18.567c-2.483-1.399-5.376-1.807-8.113-1.739
				l7.369-10.525c0.684-0.942,1.066-1.54,1.073-1.996V1.586c0-0.476-0.366-0.803-0.821-0.803H82.28
				c-0.438,0-0.804,0.321-0.804,0.803v3.177c0,0.475,0.365,0.798,0.82,0.798h7.433L81.19,17.808
				c-0.518,0.785-0.524,1.667-0.524,2.186v3.22c0,0.462,0.518,0.998,1.011,0.73c4.839-2.569,10.651-2.319,15.028-0.024
				c0.536,0.28,1.047-0.262,1.047-0.726v-3.39C97.711,19.347,97.558,18.885,96.998,18.567z"/>
		</g>
	</g>
</g>
<g id="Layer_4_1_" enable-background="new    ">
	<g id="Layer_4">
		<g>
			<path fill-rule="evenodd" clip-rule="evenodd" fill="#1C1919" d="M52.521,2.803c-1.211-1.679-3.194-2.428-5.009-2.428
				c-2.551,0-4.93,1.309-5.978,4.114c-1.216-2.806-2.909-4.114-5.617-4.114c-2.666,0-4.645,1.309-5.697,4.114h-0.08V1.586
				c-0.031-0.402-0.365-0.725-0.786-0.742h-4.035c-0.463,0-0.834,0.353-0.834,0.797v22.211c0.031,0.396,0.358,0.706,0.773,0.736
				h4.328c0.505-0.043,0.833-0.385,0.833-0.803V12.013c0-2.569-0.122-6.123,2.989-6.123c3.075,0,2.666,3.646,2.666,6.123
				l0.006,11.772c0,0.426,0.341,0.772,0.78,0.803h4.322c0.505-0.043,0.834-0.385,0.834-0.803V12.013c0-1.26-0.042-3.135,0.402-4.255
				s1.539-1.82,2.586-1.82c1.253,0,2.222,0.42,2.544,1.911c0.206,0.889,0.122,3.227,0.122,4.164v11.772
				c0,0.426,0.346,0.772,0.778,0.803h4.322c0.507-0.043,0.834-0.385,0.834-0.803L53.61,9.767C53.61,7.387,53.891,4.672,52.521,2.803
				z"/>
		</g>
	</g>
</g>
<g id="Layer_5_1_" enable-background="new    ">
	<g id="Layer_5">
		<g>
			<path fill-rule="evenodd" clip-rule="evenodd" fill="#1C1919" d="M109.574,0.375c-6.266,0-9.74,5.375-9.74,12.289
				c0,6.871,3.434,12.387,9.74,12.387c6.055,0,9.896-5.375,9.896-12.149C119.471,5.89,115.996,0.375,109.574,0.375z M109.574,20.474
				c-3.398,0-3.355-5.795-3.355-8.51c0-2.708,0.201-7.054,3.391-7.054c1.375,0,2.344,0.602,2.832,2.147
				c0.565,1.778,0.643,4.018,0.643,5.893C113.084,15.799,112.928,20.474,109.574,20.474z"/>
		</g>
	</g>
</g>
<g id="Layer_6_1_" enable-background="new    ">
	<g id="Layer_6">
		<g>
			<path fill-rule="evenodd" clip-rule="evenodd" fill="#1C1919" d="M139.351,2.992c-1.218-1.917-3.11-2.617-5.054-2.617
				c-2.988,0-4.686,1.448-5.897,4.485h-0.079V1.464c-0.084-0.347-0.395-0.603-0.771-0.62h-4.012c-0.438,0-0.799,0.315-0.834,0.725
				l0.006,22.217c0,0.426,0.346,0.772,0.779,0.803h4.31c0.505-0.043,0.84-0.385,0.845-0.803V11.823c0-1.497,0.08-2.848,0.688-4.205
				c0.482-1.071,1.45-1.777,2.502-1.777c2.989,0,2.709,3.555,2.709,5.982v12.064c0.043,0.378,0.372,0.67,0.767,0.7h4.341
				c0.48-0.05,0.789-0.341,0.834-0.7V9.907C140.482,7.758,140.482,4.77,139.351,2.992z"/>
		</g>
	</g>
</g>
<g id="Layer_7_1_" enable-background="new    ">
	<g id="Layer_7">
		<g>
			<path fill-rule="evenodd" clip-rule="evenodd" fill="#1C1919" d="M77.842,20.516c-0.791-1.095-1.631-1.984-1.631-4.011V9.761
				c0-2.854,0.201-5.479-1.905-7.444c-1.662-1.595-4.412-2.154-6.519-2.154c-4.114,0-8.717,1.534-9.679,6.622
				c-0.103,0.542,0.293,0.828,0.646,0.907l4.194,0.45c0.396-0.019,0.681-0.401,0.754-0.792c0.36-1.753,1.826-2.599,3.476-2.599
				c0.895,0,1.905,0.329,2.429,1.126c0.61,0.889,0.53,2.105,0.53,3.135v0.56c-2.509,0.286-5.789,0.47-8.139,1.504
				c-2.714,1.169-4.613,3.561-4.613,7.073c0,4.498,2.83,6.744,6.477,6.744c3.073,0,4.76-0.725,7.133-3.146
				c0.785,1.138,1.048,1.691,2.484,2.885c0.322,0.17,0.736,0.151,1.021-0.104l0.007,0.014c0.864-0.768,2.435-2.138,3.317-2.873
				C78.177,21.374,78.116,20.906,77.842,20.516z M69.328,18.567c-0.689,1.219-1.784,1.967-2.995,1.967
				c-1.662,0-2.636-1.267-2.636-3.135c0-3.688,3.305-4.357,6.44-4.357v0.937C70.137,15.665,70.179,17.07,69.328,18.567z"/>
		</g>
	</g>
</g>
<g id="Layer_8_1_" enable-background="new    ">
	<g id="Layer_8">
		<g>
			<path fill-rule="evenodd" clip-rule="evenodd" fill="#1C1919" d="M21.107,20.516c-0.791-1.095-1.631-1.984-1.631-4.011V9.761
				c0-2.854,0.201-5.479-1.905-7.444c-1.662-1.595-4.414-2.154-6.519-2.154c-4.116,0-8.71,1.534-9.679,6.622
				C1.277,7.326,1.665,7.612,2.019,7.691l4.2,0.45C6.609,8.123,6.894,7.74,6.967,7.35c0.359-1.753,1.832-2.599,3.481-2.599
				c0.889,0,1.899,0.329,2.429,1.126c0.602,0.889,0.524,2.105,0.524,3.135v0.56c-2.509,0.286-5.789,0.47-8.139,1.504
				c-2.709,1.169-4.615,3.561-4.615,7.073c0,4.498,2.837,6.744,6.477,6.744c3.081,0,4.761-0.725,7.134-3.146
				c0.792,1.138,1.048,1.691,2.483,2.885c0.323,0.17,0.736,0.151,1.023-0.104l0.013,0.014c0.864-0.768,2.434-2.138,3.316-2.873
				C21.448,21.374,21.387,20.906,21.107,20.516z M12.591,18.567c-0.688,1.219-1.777,1.967-2.993,1.967
				c-1.662,0-2.63-1.267-2.63-3.135c0-3.688,3.306-4.357,6.435-4.357v0.937C13.402,15.665,13.444,17.07,12.591,18.567z"/>
		</g>
	</g>
</g>
</svg>
