<?xml version="1.0" encoding="utf-8"?>
<!-- Generator: Adobe Illustrator 15.1.0, SVG Export Plug-In . SVG Version: 6.00 Build 0)  -->
<!DOCTYPE svg PUBLIC "-//W3C//DTD SVG 1.1//EN" "http://www.w3.org/Graphics/SVG/1.1/DTD/svg11.dtd">
<svg version="1.1" id="Layer_1" xmlns="http://www.w3.org/2000/svg" xmlns:xlink="http://www.w3.org/1999/xlink" x="0px" y="0px"
	 width="959.298px" height="266.06px" viewBox="0 0 959.298 266.06" enable-background="new 0 0 959.298 266.06"
	 xml:space="preserve">
<g>
	<path fill-rule="evenodd" clip-rule="evenodd" fill="#A3A3A4" d="M177.555,0.207c0.713-0.41,2.185-0.062,3.192-0.177
		C180.035,0.44,178.563,0.091,177.555,0.207z"/>
	<path fill-rule="evenodd" clip-rule="evenodd" fill="#A3A3A4" d="M169.221,0.561c0.246-0.404,1.234-0.066,1.773-0.177
		C170.748,0.789,169.76,0.45,169.221,0.561z"/>
	<path fill-rule="evenodd" clip-rule="evenodd" fill="#A3A3A4" d="M145.104,14.571c0.246-0.404,1.234-0.066,1.773-0.177
		C146.631,14.798,145.643,14.459,145.104,14.571z"/>
	<path fill-rule="evenodd" clip-rule="evenodd" fill="#A3A3A4" d="M867.739,33.9c0.772-0.295,2.773-0.295,3.546,0
		C870.104,33.9,868.921,33.9,867.739,33.9z"/>
	<path fill-rule="evenodd" clip-rule="evenodd" fill="#A3A3A4" d="M276.508,51.279c0.404,0.246,0.066,1.234,0.177,1.773
		C276.281,52.806,276.619,51.818,276.508,51.279z"/>
	<path fill-rule="evenodd" clip-rule="evenodd" fill="#A3A3A4" d="M851.247,57.663c-0.111,0.539,0.227,1.527-0.178,1.773
		C851.181,58.897,850.843,57.909,851.247,57.663z"/>
	<path fill-rule="evenodd" clip-rule="evenodd" fill="#A3A3A4" d="M900.368,59.968c0.295,0.89,0.295,3.011,0,3.901
		C900.368,62.569,900.368,61.269,900.368,59.968z"/>
	<path fill-rule="evenodd" clip-rule="evenodd" fill="#A3A3A4" d="M851.069,68.48c0.409,0.536,0.063,1.829,0.178,2.66
		C850.838,70.604,851.185,69.311,851.069,68.48z"/>
	<path fill-rule="evenodd" clip-rule="evenodd" fill="#A3A3A4" d="M851.424,83.199c-0.113,0.772,0.232,2.004-0.177,2.482
		C851.361,84.909,851.016,83.677,851.424,83.199z"/>
	<path fill-rule="evenodd" clip-rule="evenodd" fill="#A3A3A4" d="M55.904,83.731c-0.111,0.539,0.227,1.527-0.177,1.773
		C55.838,84.965,55.5,83.977,55.904,83.731z"/>
	<path fill-rule="evenodd" clip-rule="evenodd" fill="#A3A3A4" d="M55.727,87.455c0.406,0.303,0.065,1.354,0.177,1.951
		C55.499,89.102,55.839,88.052,55.727,87.455z"/>
	<path fill-rule="evenodd" clip-rule="evenodd" fill="#A3A3A4" d="M0.222,105.188c0,1.773,0,3.547,0,5.32
		C-0.074,109.147-0.074,106.55,0.222,105.188z"/>
	<path fill-rule="evenodd" clip-rule="evenodd" fill="#A3A3A4" d="M159.113,129.128c1.773,0,3.546,0,5.32,0
		C163.071,129.424,160.475,129.424,159.113,129.128z"/>
	<path fill-rule="evenodd" clip-rule="evenodd" fill="#A3A3A4" d="M644.476,141.542c0.42-0.408,1.592-0.063,2.305-0.178
		C646.361,141.772,645.189,141.428,644.476,141.542z"/>
	<path fill-rule="evenodd" clip-rule="evenodd" fill="#A3A3A4" d="M360.564,141.719c0.478-0.409,1.71-0.063,2.482-0.177
		C362.568,141.95,361.336,141.605,360.564,141.719z"/>
	<path fill-rule="evenodd" clip-rule="evenodd" fill="#A3A3A4" d="M463.418,143.492c1.42-0.295,4.076-0.295,5.497,0
		C467.083,143.492,465.25,143.492,463.418,143.492z"/>
	<path fill-rule="evenodd" clip-rule="evenodd" fill="#A3A3A4" d="M738.285,145.266c0.891-0.295,3.011-0.295,3.901,0
		C740.886,145.266,739.586,145.266,738.285,145.266z"/>
	<path fill-rule="evenodd" clip-rule="evenodd" fill="#A3A3A4" d="M760.452,149.522c0.294,0.305,0.294,1.822,0,2.128
		C760.452,150.94,760.452,150.231,760.452,149.522z"/>
	<path fill-rule="evenodd" clip-rule="evenodd" fill="#A3A3A4" d="M512.717,160.162c0,0.709,0,1.418,0,2.128
		C512.422,161.984,512.422,160.468,512.717,160.162z"/>
	<path fill-rule="evenodd" clip-rule="evenodd" fill="#A3A3A4" d="M401.528,166.723c0.295,0.656,0.295,2.537,0,3.192
		C401.528,168.851,401.528,167.787,401.528,166.723z"/>
	<path fill-rule="evenodd" clip-rule="evenodd" fill="#A3A3A4" d="M959.243,184.634c-0.113,0.655,0.229,1.767-0.177,2.128
		C959.179,186.106,958.836,184.995,959.243,184.634z"/>
	<path fill-rule="evenodd" clip-rule="evenodd" fill="#A3A3A4" d="M177.201,203.432c0.407,0.361,0.064,1.472,0.178,2.128
		C176.971,205.198,177.314,204.087,177.201,203.432z"/>
	<path fill-rule="evenodd" clip-rule="evenodd" fill="#A3A3A4" d="M823.051,205.736c-0.113,0.655,0.229,1.767-0.178,2.128
		C822.987,207.209,822.644,206.098,823.051,205.736z"/>
	<path fill-rule="evenodd" clip-rule="evenodd" fill="#A3A3A4" d="M285.906,209.815c-0.112,0.598,0.229,1.646-0.177,1.95
		C285.842,211.169,285.5,210.119,285.906,209.815z"/>
	<path fill-rule="evenodd" clip-rule="evenodd" fill="#A3A3A4" d="M822.873,211.588c0,1.183,0,2.365,0,3.547
		C822.578,214.362,822.578,212.361,822.873,211.588z"/>
	<path fill-rule="evenodd" clip-rule="evenodd" fill="#A3A3A4" d="M570.173,216.909c-0.296-1.304-0.296-3.841,0-5.144
		C570.173,213.48,570.173,215.194,570.173,216.909z"/>
	<path fill-rule="evenodd" clip-rule="evenodd" fill="#A3A3A4" d="M419.439,244.572c-0.294-0.537-0.294-2.299,0-2.837
		C419.439,242.682,419.439,243.627,419.439,244.572z"/>
	<path fill-rule="evenodd" clip-rule="evenodd" fill="#A3A3A4" d="M221.712,263.902c0.768,0,1.537,0,2.305,0
		C223.653,264.196,222.075,264.196,221.712,263.902z"/>
	<path fill-rule="evenodd" clip-rule="evenodd" fill="#A3A3A4" d="M452.423,264.611c-1.834,0.296-4.905,0.296-6.739,0
		C447.931,264.611,450.177,264.611,452.423,264.611z"/>
	<path fill-rule="evenodd" clip-rule="evenodd" fill="#A3A3A4" d="M94.386,266.03c-1.125-0.116-2.716,0.233-3.547-0.178
		C91.964,265.969,93.556,265.619,94.386,266.03z"/>
	<path fill-rule="evenodd" clip-rule="evenodd" fill="#767677" d="M22.92,50.924c1.344-1.493,2.763-2.912,4.256-4.256
		C25.832,48.161,24.413,49.58,22.92,50.924z"/>
	<path fill-rule="evenodd" clip-rule="evenodd" fill="#767677" d="M75.766,130.902c0.695-0.843,1.463-1.611,2.306-2.306
		C77.377,129.439,76.608,130.208,75.766,130.902z"/>
	<path fill-rule="evenodd" clip-rule="evenodd" fill="#767677" d="M61.225,105.366c0.724,0.576,1.375,1.226,1.951,1.951
		C62.451,106.74,61.8,106.09,61.225,105.366z"/>
	<path fill-rule="evenodd" clip-rule="evenodd" fill="#D1D1D2" d="M73.638,48.441c0.931-1.079,1.936-2.083,3.015-3.015
		C75.722,46.506,74.717,47.511,73.638,48.441z"/>
	<path fill-rule="evenodd" clip-rule="evenodd" fill="#D1D1D2" d="M164.078,145.266c0.724,0.576,1.375,1.226,1.951,1.95
		C165.304,146.641,164.654,145.99,164.078,145.266z"/>
	<path fill-rule="evenodd" clip-rule="evenodd" fill="#D1D1D2" d="M295.482,248.829c1.02,0.871,1.966,1.817,2.837,2.837
		C297.3,250.794,296.354,249.849,295.482,248.829z"/>
	<path fill-rule="evenodd" clip-rule="evenodd" fill="#767677" d="M521.761,233.578c0.754-0.901,1.581-1.729,2.482-2.483
		C523.489,231.997,522.662,232.824,521.761,233.578z"/>
	<path fill-rule="evenodd" clip-rule="evenodd" fill="#D1D1D2" d="M549.957,184.812c0.724-0.687,1.602,1.442,2.482,1.773
		c0,0.06,0,0.118,0,0.177C551.507,186.307,550.89,184.686,549.957,184.812z"/>
	<path fill-rule="evenodd" clip-rule="evenodd" fill="#767677" d="M552.439,186.762c0-0.059,0-0.117,0-0.177
		c1.02,0.871,1.966,1.817,2.837,2.837C554.227,188.64,553.489,187.544,552.439,186.762z"/>
	<path fill-rule="evenodd" clip-rule="evenodd" fill="#767677" d="M579.749,248.829c0.842,0.694,1.61,1.463,2.306,2.305
		C581.212,250.439,580.443,249.672,579.749,248.829z"/>
	<path fill-rule="evenodd" clip-rule="evenodd" fill="#767677" d="M822.164,172.575c0.576-0.725,1.227-1.375,1.951-1.95
		c0,0.059,0,0.117,0,0.177C823.359,171.287,822.92,172.09,822.164,172.575z"/>
	<path fill-rule="evenodd" clip-rule="evenodd" fill="#D1D1D2" d="M824.115,170.625c0.756-0.485,1.194-1.288,1.95-1.774
		c-0.576,0.725-1.227,1.375-1.95,1.951C824.115,170.742,824.115,170.684,824.115,170.625z"/>
	<path fill-rule="evenodd" clip-rule="evenodd" fill="#767677" d="M826.243,168.674c0.575-0.725,1.226-1.375,1.95-1.951
		c0,0.06,0,0.119,0,0.178C827.438,167.386,826.999,168.188,826.243,168.674z"/>
	<path fill-rule="evenodd" clip-rule="evenodd" fill="#D1D1D2" d="M828.193,166.723c0.757-0.484,1.194-1.288,1.95-1.772
		c-0.575,0.724-1.226,1.374-1.95,1.95C828.193,166.842,828.193,166.782,828.193,166.723z"/>
	<path fill-rule="evenodd" clip-rule="evenodd" fill="#D1D1D2" d="M834.755,250.602c0.843,0.695,1.61,1.463,2.305,2.306
		C836.218,252.213,835.449,251.444,834.755,250.602z"/>
	<path fill-rule="evenodd" clip-rule="evenodd" fill="#D1D1D2" d="M948.604,151.118c0.901,0.753,1.729,1.581,2.482,2.482
		C950.185,152.847,949.356,152.02,948.604,151.118z"/>
	<path fill-rule="evenodd" clip-rule="evenodd" fill="#D1D1D2" d="M856.744,39.042c0.576-0.724,1.227-1.375,1.95-1.951
		C858.119,37.816,857.469,38.467,856.744,39.042z"/>
	<path fill-rule="evenodd" clip-rule="evenodd" fill="#D1D1D2" d="M775.88,154.842c0.635-0.783,1.345-1.493,2.128-2.128
		C777.373,153.497,776.663,154.207,775.88,154.842z"/>
	<path fill-rule="evenodd" clip-rule="evenodd" fill="#D1D1D2" d="M699.98,224.534c0.518-0.666,1.108-1.257,1.774-1.773
		C701.238,223.426,700.646,224.018,699.98,224.534z"/>
	<path fill-rule="evenodd" clip-rule="evenodd" fill="#767677" d="M698.208,226.307c0.517-0.665,1.107-1.256,1.772-1.772
		C699.464,225.199,698.873,225.79,698.208,226.307z"/>
	<path fill-rule="evenodd" clip-rule="evenodd" fill="#D1D1D2" d="M626.033,236.415c1.02,0.872,1.965,1.818,2.837,2.838
		C627.851,238.381,626.904,237.436,626.033,236.415z"/>
	<path fill-rule="evenodd" clip-rule="evenodd" fill="#D1D1D2" d="M674.268,194.741c0.931-1.078,1.937-2.083,3.015-3.014
		C676.352,192.806,675.347,193.812,674.268,194.741z"/>
	<path fill-rule="evenodd" clip-rule="evenodd" fill="#767677" d="M678.878,148.635c0.726,0.576,1.375,1.227,1.951,1.951
		C680.104,150.01,679.454,149.359,678.878,148.635z"/>
	<path fill-rule="evenodd" clip-rule="evenodd" fill="#767677" d="M588.261,165.127c0.872-1.02,1.817-1.966,2.838-2.837
		C590.227,163.31,589.28,164.255,588.261,165.127z"/>
	<path fill-rule="evenodd" clip-rule="evenodd" fill="#D1D1D2" d="M565.739,180.555c1.374,1.227,2.675,2.527,3.901,3.902
		C568.267,183.23,566.966,181.93,565.739,180.555z"/>
	<path fill-rule="evenodd" clip-rule="evenodd" fill="#767677" d="M516.973,169.383c1.788,1.641,3.502,3.354,5.143,5.143
		C520.327,172.886,518.612,171.171,516.973,169.383z"/>
	<path fill-rule="evenodd" clip-rule="evenodd" fill="#D1D1D2" d="M500.126,231.627c0.989-1.138,2.054-2.202,3.191-3.191
		C502.327,229.573,501.264,230.637,500.126,231.627z"/>
	<path fill-rule="evenodd" clip-rule="evenodd" fill="#D1D1D2" d="M443.379,153.423c0.694-0.843,1.463-1.61,2.305-2.305
		C444.99,151.961,444.222,152.729,443.379,153.423z"/>
	<path fill-rule="evenodd" clip-rule="evenodd" fill="#767677" d="M414.828,225.598c1.108-1.256,2.291-2.438,3.547-3.547
		C417.267,223.308,416.084,224.49,414.828,225.598z"/>
	<path fill-rule="evenodd" clip-rule="evenodd" fill="#767677" d="M339.639,238.188c0.783,0.636,1.493,1.345,2.128,2.128
		C340.983,239.682,340.273,238.972,339.639,238.188z"/>
	<path fill-rule="evenodd" clip-rule="evenodd" fill="#767677" d="M389.47,193.855c0.99-1.138,2.054-2.202,3.191-3.192
		C391.671,191.802,390.607,192.865,389.47,193.855z"/>
	<path fill-rule="evenodd" clip-rule="evenodd" fill="#D1D1D2" d="M394.612,148.813c0.666,0.517,1.257,1.108,1.773,1.773
		C395.72,150.069,395.129,149.478,394.612,148.813z"/>
	<path fill-rule="evenodd" clip-rule="evenodd" fill="#767677" d="M304.349,164.772c0.576-0.725,1.226-1.375,1.951-1.95
		C305.724,163.546,305.073,164.196,304.349,164.772z"/>
	<path fill-rule="evenodd" clip-rule="evenodd" fill="#767677" d="M238.913,222.406c1.138,0.99,2.202,2.054,3.192,3.191
		C240.967,224.608,239.903,223.544,238.913,222.406z"/>
	<path fill-rule="evenodd" clip-rule="evenodd" fill="#D1D1D2" d="M198.658,145.62c1.079,0.931,2.084,1.937,3.015,3.015
		C200.594,147.705,199.589,146.699,198.658,145.62z"/>
	<path fill-rule="evenodd" clip-rule="evenodd" fill="#767677" d="M253.1,107.316c0.694-0.843,1.463-1.611,2.305-2.306
		C254.71,105.854,253.942,106.622,253.1,107.316z"/>
	<path fill-rule="evenodd" clip-rule="evenodd" fill="#767677" d="M255.582,104.833c0.695-0.842,1.463-1.611,2.306-2.305
		C257.193,103.371,256.425,104.139,255.582,104.833z"/>
	<path fill-rule="evenodd" clip-rule="evenodd" fill="#A3A3A4" d="M734.384,263.37c-12.122,0.178-26.099,0.528-38.127-0.178
		C708.612,263.606,721.733,263.252,734.384,263.37z"/>
	<path fill-rule="evenodd" clip-rule="evenodd" fill="#767677" d="M203.979,112.459c0.576-0.725,1.226-1.375,1.95-1.95
		C205.353,111.233,204.703,111.883,203.979,112.459z"/>
	<path fill-rule="evenodd" clip-rule="evenodd" fill="#D1D1D2" d="M634.013,160.339c0.517-0.665,1.108-1.256,1.773-1.772
		C635.27,159.231,634.679,159.822,634.013,160.339z"/>
	<path fill-rule="evenodd" clip-rule="evenodd" fill="#767677" d="M366.062,190.132c0.694-0.843,1.463-1.611,2.305-2.306
		C367.672,188.668,366.904,189.437,366.062,190.132z"/>
	<path fill-rule="evenodd" clip-rule="evenodd" fill="#D1D1D2" d="M882.636,168.497c0.517-0.666,1.107-1.257,1.772-1.774
		C883.892,167.389,883.3,167.98,882.636,168.497z"/>
	<path fill-rule="evenodd" clip-rule="evenodd" fill="#767677" d="M887.601,251.488c0.813-0.961,1.699-1.847,2.66-2.659
		C889.448,249.79,888.562,250.677,887.601,251.488z"/>
	<path fill-rule="evenodd" clip-rule="evenodd" fill="#D1D1D2" d="M909.59,164.063c0.665,0.518,1.257,1.108,1.773,1.774
		C910.698,165.319,910.106,164.729,909.59,164.063z"/>
	<path fill-rule="evenodd" clip-rule="evenodd" fill="#A3A3A4" d="M172.945,0.384c0.361-0.407,1.473-0.064,2.128-0.177
		C174.711,0.614,173.6,0.271,172.945,0.384z"/>
	<path fill-rule="evenodd" clip-rule="evenodd" fill="#474749" d="M202.382,0.384c38.991,2.682,70.753,12.596,74.125,50.895
		c0.111,0.539-0.227,1.527,0.177,1.773c0,1.773,0,3.546,0,5.32c-0.404,0.246-0.066,1.234-0.177,1.773
		c-1.29,19.044-8.992,31.677-18.62,42.383c-0.843,0.694-1.611,1.463-2.306,2.305c0.033,0.151-0.069,0.167-0.177,0.177
		c-0.842,0.694-1.611,1.463-2.305,2.306c-12.909,12.654-31.715,21.203-50.717,29.083c-1.954,0.81-6.981,2.582-7.271,4.078
		c-0.472,2.437,2.541,3.655,3.547,5.143c0.931,1.079,1.936,2.084,3.015,3.015c4.503,4.928,8.454,10.051,11.35,16.492
		c2.896,6.442,4.534,13.652,6.916,20.748c4.634,13.806,10.571,26.872,18.975,36.531c0.99,1.138,2.054,2.202,3.192,3.191
		c3.98,3.232,8.083,6.342,14.719,6.916c1.361,0.296,3.958,0.296,5.32,0c9.793-0.374,17.732-2.603,23.586-6.916
		c0.295-1.125,0.295-3.485,0-4.61c0-3.074,0-6.147,0-9.222c0.405-0.304,0.064-1.353,0.177-1.95
		c1.217-19.945,8.177-34.146,18.443-45.043c0.724-0.576,1.375-1.227,1.951-1.95c12.977-12.146,30.402-19.842,54.265-21.103
		c0.772-0.114,2.004,0.231,2.482-0.177c1.714,0,3.428,0,5.143,0c0.478,0.408,1.71,0.063,2.482,0.177
		c9.917,0.427,18.313,2.376,23.94,7.093c0.517,0.665,1.108,1.257,1.773,1.773c3.218,3.875,4.97,9.217,5.143,16.137
		c0,1.064,0,2.128,0,3.192c-0.434,9.438-4.224,15.52-8.867,20.748c-1.138,0.99-2.202,2.055-3.191,3.192
		c-13.627,12.378-33.679,21.025-52.668,29.26c-1.131,0.49-3.3,1.133-3.546,1.773c-0.656,1.704,1.939,6.379,2.482,7.448
		c1.287,2.533,2.473,4.039,3.901,5.852c0.635,0.783,1.345,1.493,2.128,2.128c8.188,8.054,27.439,10.428,41.496,5.676
		c12.816-4.334,22.849-12.537,31.565-20.395c1.256-1.107,2.438-2.29,3.547-3.547c2.783-2.126,2.836-7.928,3.724-12.235
		c1.856-9.014,4.681-17.669,7.271-26.068c3.536-11.469,6.531-22.241,14.009-30.324c0.843-0.694,1.611-1.462,2.305-2.305
		c4.579-3.875,9.812-7.095,17.734-7.626c1.832,0,3.665,0,5.497,0c3.847,0.397,10.345,0.22,11.35,3.902
		c1.086,3.982-1.003,9.314-1.773,13.299c-2.552,13.19-6.405,23.342-9.931,35.822c-3.835,13.575-11.487,41.313,7.625,44.333
		c1.008,0.295,3.248,0.295,4.256,0c8.841-0.794,14.589-4.682,19.685-9.222c1.138-0.99,2.201-2.054,3.191-3.191
		c8.846-9.634,15.464-24.965,20.749-39.368c0.806-2.196,2.036-4.526,2.128-6.384c0.18-3.691-2.455-5.756-4.079-8.158
		c-1.641-1.788-3.354-3.502-5.143-5.143c-1.715-2.067-3.85-3.717-4.256-7.093c0-0.71,0-1.419,0-2.128
		c0.544-8.064,4.929-13.062,11.526-15.428c6.92-2.483,16.391-2.181,21.458,2.128c2.341,1.991,3.979,4.941,4.965,8.512
		c2.757,9.989,9.184,18.635,15.073,25.181c1.227,1.375,2.527,2.676,3.901,3.902c1.495,1.282,2.86,2.695,4.434,3.9
		c3.614-8.858,8.049-16.895,14.187-23.23c1.02-0.872,1.966-1.817,2.838-2.837c12.822-11.887,29.969-19.448,53.377-20.748
		c0.714-0.114,1.886,0.23,2.305-0.178c2.129,0,4.256,0,6.385,0c0.42,0.408,1.592,0.064,2.306,0.178
		c9.655,0.512,18.003,2.33,23.407,7.093c0.576,0.724,1.227,1.375,1.951,1.951c4.4,4.971,5.698,13.503,4.788,21.989
		c-0.891,8.297-4.277,14.573-8.335,19.152c-1.078,0.931-2.084,1.936-3.015,3.014c-11.013,8.962-26.739,15.719-45.575,17.024
		c-4.216,0.293-8.643-1.498-10.463,1.597c-2.25,3.828,0.093,10.292,1.419,13.3c1.93,4.371,4.113,7.066,6.385,9.753
		c0.871,1.021,1.817,1.966,2.837,2.838c4.23,3.931,9.971,6.944,16.847,8.335c7.325,1.48,15.273,0.437,21.813-1.774
		c12.4-4.192,22.228-11.937,30.679-19.507c0.665-0.517,1.256-1.107,1.772-1.772c0.666-0.517,1.258-1.108,1.774-1.773
		c1.522-1.676,1.841-4.688,2.482-7.803c2.575-12.502,6.467-27.569,7.271-41.142c1.007-16.992,8.864-28.081,26.777-28.55
		c1.301,0,2.601,0,3.901,0c1.123,0,2.246,0,3.369,0c0.246,0.404,1.234,0.066,1.773,0.177c5.093,0.642,11.326,0.142,13.123,4.079
		c0,0.709,0,1.418,0,2.128c0.126,4.828-3.955,10.862-2.837,16.847c0.346,1.855,1.94,3.307,4.078,3.191
		c3.415-0.185,6.037-5.507,7.626-7.979c2.212-3.446,4.108-6.181,6.561-8.867c0.783-0.635,1.493-1.345,2.128-2.128
		c5.558-4.828,15.119-10.415,25.358-7.271c6.094,1.871,9.242,9.343,7.271,17.201c-0.574,2.291-1.328,4.74-0.887,7.271
		c2.42-0.643,4.728-2.207,6.916-3.724c4.221-2.927,8.072-6.09,12.236-9.398c2.453-1.951,5.461-3.538,6.738-6.207
		c2.135-4.464,3.618-9.709,5.32-14.896c4.754-14.493,10.101-31.01,10.285-50.008c0.409-0.479,0.063-1.71,0.177-2.482
		c0-2.424,0-4.848,0-7.271c-0.113-0.772,0.232-2.004-0.177-2.483c0-0.769,0-1.537,0-2.305c-0.115-0.831,0.231-2.124-0.178-2.66
		c0-3.015,0-6.03,0-9.044c0.404-0.246,0.066-1.235,0.178-1.773c0.444-7.595,1.969-14.109,5.497-18.621
		c0.725-0.576,1.375-1.226,1.95-1.951c2.379-1.7,5.133-3.025,9.045-3.191c1.182,0,2.364,0,3.546,0
		c18.253,0.13,29.135,7.632,29.083,26.068c0,1.3,0,2.601,0,3.901c-3.179,28.377-12.277,53.577-19.861,78.736
		c-1.499,4.973-4.776,14.381,1.773,15.783c0.191,0.294,1.582,0.294,1.773,0c5.396-1.463,9.233-5.342,13.832-8.157
		c4.502-2.756,9.555-5.153,15.782-6.207c13.321-2.254,27.327,0.2,34.936,7.094c0.753,0.901,1.581,1.729,2.482,2.482
		c6.067,6.995,8.631,17.497,8.157,31.033c-0.407,0.361-0.064,1.473-0.177,2.128c-1.131,25.813-10.245,44.679-24.473,57.634
		c-14.136,12.871-34.668,20.621-61.003,21.103c-0.303-0.405-1.354-0.065-1.95-0.178c-14.892-0.772-26.3-5.029-34.581-12.413
		c-0.694-0.843-1.462-1.61-2.305-2.306c-7.441-8.341-11.669-19.896-11.882-35.467c0-1.182,0-2.364,0-3.547c0-1.24,0-2.481,0-3.724
		c0.407-0.361,0.064-1.473,0.178-2.128c0.729-15.35,3.857-28.299,7.448-40.786c-0.044-0.224-0.353-0.18-0.355,0
		c-0.756,0.484-1.193,1.288-1.95,1.772c-0.725,0.576-1.375,1.227-1.95,1.951c-0.151-0.032-0.167,0.069-0.178,0.177
		c-0.756,0.486-1.194,1.289-1.95,1.774c-0.725,0.575-1.375,1.226-1.951,1.95c-6.128,5.569-13.097,10.538-21.635,13.654
		c-10.521,3.84-19.754,0.474-24.295-7.271c-1.287-2.195-1.567-6.169-4.61-6.384c-3.534-0.249-6.592,5.081-8.335,7.271
		c-13.779,17.313-21.253,40.743-24.295,68.983c-0.606,5.634,0.799,14.833-4.61,14.541c-12.65-0.118-25.771,0.236-38.127-0.178
		c-1.906-9.959,2.393-19.181,3.547-28.373c-0.598-0.065-1.232,0.554-1.596,0.887c-3.521,3.223-7.209,7.19-11.172,10.286
		c-13.651,10.66-30.814,18.279-53.732,19.684c-0.772,0.114-2.005-0.231-2.482,0.177c-1.655,0-3.311,0-4.966,0
		c-0.536-0.409-1.829-0.063-2.66-0.177c-17.74-0.821-31.474-5.648-41.141-14.542c-0.695-0.842-1.464-1.61-2.306-2.305
		c-2.911-3.625-6.414-7.557-7.626-13.123c-1.224-5.62-1.493-12.012-1.95-18.797c0-1.715,0-3.429,0-5.144
		c0.083-4.114,0.65-7.743,1.063-11.526c-5.616-3.309-11.407-6.443-15.96-10.817c-0.871-1.02-1.817-1.966-2.837-2.837
		c-0.881-0.331-1.759-2.46-2.482-1.773c-4.74,19.259-13.951,34.048-25.714,46.283c-0.901,0.755-1.729,1.582-2.482,2.483
		c-17.479,15.979-38.154,28.759-69.338,31.033c-2.246,0-4.492,0-6.739,0c-14.574-0.854-24.995-5.861-26.245-20.039
		c0-0.945,0-1.891,0-2.837c0.258-1.527,0.13-2.875-0.355-4.078c-1.154-0.251-2.244,1.316-3.369,2.128
		c-17.675,12.752-37.897,24.074-66.5,26.067c-0.655,0.113-1.767-0.229-2.128,0.178c-2.128,0-4.256,0-6.384,0
		c-0.419-0.407-1.591-0.063-2.305-0.178c-17.236-0.852-30.456-5.721-40.078-14.187c-0.872-1.02-1.817-1.966-2.837-2.837
		c-2.593-3.142-5.095-6.372-6.739-10.463c-17.374,12.005-36.265,24.028-64.727,25.536c-0.769,0-1.537,0-2.305,0
		c-32.835-1.39-42.234-26.218-44.333-58.343c-0.114-0.656,0.229-1.767-0.178-2.128c0-3.192,0-6.385,0-9.576
		c0.409-0.479,0.063-1.71,0.178-2.482c1.398-19.206-3.115-33.997-11.35-44.157c-0.576-0.724-1.227-1.375-1.951-1.95
		c-2.703-1.822-4.835-4.135-9.222-3.547c-5.045,0.677-6.061,5.989-7.271,11.349c-5.694,25.228-13.481,48.638-18.266,74.835
		c-1.382,7.567-2.548,15.928-3.546,24.473c-0.36,3.083-0.269,8.012-1.596,9.398c-3.391,3.544-12.358,3.417-18.088,4.078
		c-0.772,0.114-2.004-0.231-2.482,0.178c-3.074,0-6.148,0-9.222,0c-0.83-0.411-2.421-0.062-3.547-0.178c-1.064,0-2.128,0-3.192,0
		c-1.893-0.295-5.023-0.295-6.916,0c-10.008,1.369-7.382-12.04-5.852-19.507c3.443-16.795,8.218-32.519,12.591-48.589
		c5.859-21.532,12.185-42.771,18.266-63.485c6.246-21.277,12.385-42.644,18.797-62.954c3.364-10.653,5.998-21.257,10.108-30.856
		c4.098-9.571,9.699-17.801,14.719-26.068c-0.828,0-1.655,0-2.482,0c-0.539,0.111-1.528-0.227-1.773,0.177
		C114.72,17.29,94.096,29.768,76.652,45.427c-1.079,0.931-2.084,1.936-3.015,3.015c-8.374,9.301-16.191,19.157-17.733,35.29
		c-0.404,0.246-0.066,1.234-0.177,1.773c0,0.65,0,1.301,0,1.951c0.112,0.597-0.229,1.647,0.177,1.951
		c0.302,6.792,2.259,11.927,5.32,15.96c0.576,0.724,1.226,1.375,1.951,1.951c4.899,5.214,17.683,4.469,24.649,1.596
		c-1.262,8.551-5.072,14.553-9.753,19.684c-0.843,0.694-1.611,1.463-2.306,2.306c-10.36,9.839-27.369,16.811-46.993,13.3
		c-17.278-3.09-27.571-14.609-28.551-33.693c0-1.773,0-3.547,0-5.32C1.512,80.824,10.61,64.268,22.92,50.924
		c1.493-1.345,2.912-2.764,4.256-4.256c32.938-29.781,83.16-42.272,142.044-46.107c0.539-0.111,1.527,0.228,1.773-0.177
		c0.65,0,1.3,0,1.951,0c0.655-0.113,1.767,0.23,2.128-0.177c0.828,0,1.655,0,2.482,0c1.008-0.116,2.48,0.233,3.192-0.177
		c4.729,0,9.458,0,14.187,0c0.713,0.411,2.185,0.062,3.192,0.177c0.769,0,1.537,0,2.306,0
		C200.735,0.612,201.785,0.271,202.382,0.384z M198.835,11.556c-8.079,2.812-10.056,10.125-13.3,17.911
		c-8.887,21.329-16.334,43.328-23.763,65.613c-3.036,9.106-5.976,18.298-8.157,27.664c-0.294,0.422-0.294,2.061,0,2.483
		c0.45,2.683,2.172,4.094,5.497,3.901c1.362,0.295,3.958,0.295,5.32,0c17.787-0.952,29.681-7.796,39.546-16.669
		c0.724-0.576,1.375-1.226,1.95-1.95c11.844-11.917,19.207-31.037,22.344-52.668c3.583-24.701-8.763-41.39-27.664-46.285
		C200.417,11.263,199.027,11.263,198.835,11.556z M651.392,151.473c-7.22,0.346-11.608,3.523-15.605,7.094
		c-0.665,0.517-1.257,1.107-1.773,1.772c-5.91,6.91-11.39,16.029-14.896,25.536c-1.88,5.099-4.75,15.688,1.419,17.733
		c2.604,0.864,6.644-0.249,9.044-0.886c8.003-2.127,14.627-7.159,19.329-11.527c7.234-6.722,14.083-13.969,16.137-25.536
		c0.295-0.249,0.295-1.702,0-1.95c-0.464-7.517-4.423-11.537-11.703-12.236C653.094,151.179,651.64,151.179,651.392,151.473z
		 M368.367,187.826c4.727-6.317,11.465-11.858,12.414-21.457c0.877-8.887-4.873-14.909-12.945-14.896
		c-6.464,0.01-12.174,3.272-15.96,6.738c-4.138,3.789-6.963,8.174-9.753,12.945c-2.88,4.926-5.549,9.533-7.448,15.251
		c-2.453,7.386-5.266,15.955-3.015,23.585c14.697-3.391,24.582-11.594,34.403-19.86
		C366.904,189.437,367.672,188.668,368.367,187.826z M909.59,164.063c-6.4-6.316-20.436-3.312-25.182,2.66
		c-0.665,0.518-1.256,1.108-1.772,1.774c-12.062,14.657-19.104,34.331-20.217,59.938c-0.294,0.248-0.294,1.702,0,1.95
		c0.33,12.38,2.684,22.734,11.882,26.246c0.413,0,0.827,0,1.241,0c0.248,0.294,1.702,0.294,1.95,0
		c4.654-0.429,7.236-2.931,10.108-5.144c0.961-0.812,1.848-1.698,2.66-2.659c6.923-8.077,12.103-17.68,16.492-28.196
		c4.376-10.487,7.896-22.306,9.221-35.645c0.407-0.361,0.064-1.473,0.178-2.128c0-0.769,0-1.537,0-2.306
		c-0.111-0.538,0.227-1.527-0.178-1.773c-0.26-5.591-1.946-9.757-4.61-12.944C910.847,165.171,910.255,164.58,909.59,164.063z"/>
	<path fill-rule="evenodd" clip-rule="evenodd" fill="#A3A3A4" d="M198.835,11.556c0.191-0.293,1.582-0.293,1.773,0
		C200.018,11.556,199.427,11.556,198.835,11.556z"/>
	<path fill-rule="evenodd" clip-rule="evenodd" fill="#A3A3A4" d="M276.685,58.372c-0.111,0.539,0.227,1.527-0.177,1.773
		C276.619,59.606,276.281,58.618,276.685,58.372z"/>
	<path fill-rule="evenodd" clip-rule="evenodd" fill="#A3A3A4" d="M745.556,145.266c0.539,0.111,1.527-0.228,1.773,0.177
		C746.79,145.332,745.802,145.67,745.556,145.266z"/>
	<path fill-rule="evenodd" clip-rule="evenodd" fill="#A3A3A4" d="M651.392,151.473c0.248-0.294,1.702-0.294,1.951,0
		C652.692,151.473,652.042,151.473,651.392,151.473z"/>
	<path fill-rule="evenodd" clip-rule="evenodd" fill="#A3A3A4" d="M882.28,158.389c0.591,0,1.183,0,1.773,0
		C883.862,158.683,882.472,158.683,882.28,158.389z"/>
	<path fill-rule="evenodd" clip-rule="evenodd" fill="#A3A3A4" d="M665.046,165.659c0-0.65,0-1.3,0-1.95
		C665.341,163.957,665.341,165.41,665.046,165.659z"/>
	<path fill-rule="evenodd" clip-rule="evenodd" fill="#A3A3A4" d="M915.974,178.781c0.404,0.246,0.066,1.235,0.178,1.773
		C915.747,180.309,916.085,179.321,915.974,178.781z"/>
	<path fill-rule="evenodd" clip-rule="evenodd" fill="#A3A3A4" d="M915.974,184.988c0.113-0.655-0.229-1.767,0.178-2.128
		C916.038,183.516,916.381,184.627,915.974,184.988z"/>
	<path fill-rule="evenodd" clip-rule="evenodd" fill="#A3A3A4" d="M177.201,193.855c0.115-0.772-0.231-2.005,0.178-2.482
		C177.264,192.146,177.609,193.377,177.201,193.855z"/>
	<path fill-rule="evenodd" clip-rule="evenodd" fill="#A3A3A4" d="M862.419,228.436c0,0.65,0,1.3,0,1.95
		C862.125,230.138,862.125,228.684,862.419,228.436z"/>
	<path fill-rule="evenodd" clip-rule="evenodd" fill="#A3A3A4" d="M476.186,240.849c1.419,0,2.837,0,4.256,0
		C479.434,241.144,477.193,241.144,476.186,240.849z"/>
	<path fill-rule="evenodd" clip-rule="evenodd" fill="#A3A3A4" d="M871.641,265.32c0.597,0.112,1.647-0.228,1.95,0.178
		C872.994,265.386,871.943,265.727,871.641,265.32z"/>
	<path fill-rule="evenodd" clip-rule="evenodd" fill="#A3A3A4" d="M623.195,265.676c0.831,0.114,2.124-0.232,2.66,0.177
		C625.025,265.738,623.732,266.085,623.195,265.676z"/>
	<path fill-rule="evenodd" clip-rule="evenodd" fill="#A3A3A4" d="M338.397,265.853c0.714,0.114,1.886-0.229,2.305,0.178
		C339.989,265.916,338.817,266.261,338.397,265.853z"/>
	<path fill-rule="evenodd" clip-rule="evenodd" fill="#A3A3A4" d="M194.934,0.029c1.007,0.116,2.479-0.233,3.192,0.177
		C197.119,0.091,195.647,0.44,194.934,0.029z"/>
	<path fill-rule="evenodd" clip-rule="evenodd" fill="#A3A3A4" d="M200.432,0.207c0.597,0.112,1.647-0.228,1.951,0.177
		C201.785,0.271,200.735,0.612,200.432,0.207z"/>
	<path fill-rule="evenodd" clip-rule="evenodd" fill="#A3A3A4" d="M851.247,73.445c0.409,0.479,0.063,1.71,0.177,2.483
		C851.016,75.45,851.361,74.218,851.247,73.445z"/>
	<path fill-rule="evenodd" clip-rule="evenodd" fill="#A3A3A4" d="M153.616,122.744c0,0.828,0,1.655,0,2.483
		C153.321,124.805,153.321,123.166,153.616,122.744z"/>
	<path fill-rule="evenodd" clip-rule="evenodd" fill="#A3A3A4" d="M653.165,141.364c0.714,0.114,1.886-0.23,2.306,0.178
		C654.757,141.428,653.585,141.772,653.165,141.364z"/>
	<path fill-rule="evenodd" clip-rule="evenodd" fill="#A3A3A4" d="M368.189,141.542c0.772,0.114,2.004-0.231,2.482,0.177
		C369.899,141.605,368.667,141.95,368.189,141.542z"/>
	<path fill-rule="evenodd" clip-rule="evenodd" fill="#A3A3A4" d="M285.729,220.987c0.295,1.125,0.295,3.485,0,4.61
		C285.729,224.061,285.729,222.524,285.729,220.987z"/>
	<path fill-rule="evenodd" clip-rule="evenodd" fill="#A3A3A4" d="M256.824,232.514c1.773,0,3.547,0,5.32,0
		C260.782,232.81,258.185,232.81,256.824,232.514z"/>
	<path fill-rule="evenodd" clip-rule="evenodd" fill="#A3A3A4" d="M875.542,256.632c0.649,0,1.3,0,1.95,0
		C877.244,256.926,875.79,256.926,875.542,256.632z"/>
	<path fill-rule="evenodd" clip-rule="evenodd" fill="#A3A3A4" d="M80.731,265.853c1.893-0.295,5.023-0.295,6.916,0
		C85.342,265.853,83.037,265.853,80.731,265.853z"/>
	<path fill-rule="evenodd" clip-rule="evenodd" fill="#A3A3A4" d="M630.821,265.853c0.478-0.408,1.71-0.063,2.482-0.177
		C632.826,266.084,631.594,265.738,630.821,265.853z"/>
	<path fill-rule="evenodd" clip-rule="evenodd" fill="#A3A3A4" d="M103.607,266.03c0.478-0.409,1.71-0.063,2.482-0.178
		C105.612,266.262,104.379,265.916,103.607,266.03z"/>
	<path fill-rule="evenodd" clip-rule="evenodd" fill="#A3A3A4" d="M347.086,266.03c0.362-0.407,1.473-0.064,2.128-0.178
		C348.853,266.26,347.742,265.917,347.086,266.03z"/>
</g>
</svg>
