<?xml version="1.0" encoding="utf-8"?>
<!-- Generator: Adobe Illustrator 15.1.0, SVG Export Plug-In . SVG Version: 6.00 Build 0)  -->
<!DOCTYPE svg PUBLIC "-//W3C//DTD SVG 1.1//EN" "http://www.w3.org/Graphics/SVG/1.1/DTD/svg11.dtd">
<svg version="1.1" id="Layer_1" xmlns="http://www.w3.org/2000/svg" xmlns:xlink="http://www.w3.org/1999/xlink" x="0px" y="0px"
	 width="401.667px" height="68.667px" viewBox="0 0 401.667 68.667" enable-background="new 0 0 401.667 68.667"
	 xml:space="preserve">
<rect fill="#FFFFFF" width="401.667" height="68.667"/>
<g>
	<defs>
		<rect id="SVGID_1_" x="-49.333" y="-65.333" width="500" height="200"/>
	</defs>
	<clipPath id="SVGID_2_">
		<use xlink:href="#SVGID_1_"  overflow="visible"/>
	</clipPath>
	<path clip-path="url(#SVGID_2_)" fill="#173680" d="M38.995,53.635L49.977,1.093h11.312l-4.345,20.642l0.166,0.075
		c3.03-3.28,6.966-5.44,11.965-5.44c5.905,0,9.264,3.501,9.264,9.316c0,1.787-0.328,4.47-0.821,6.707l-4.426,21.242h-11.31
		l4.261-20.571c0.33-1.417,0.491-3.131,0.491-4.547c0-2.236-0.982-3.801-3.523-3.801c-3.609,0-7.459,4.173-8.937,10.955
		l-3.769,17.964H38.995z"/>
	<path clip-path="url(#SVGID_2_)" fill="#173680" d="M99.911,68.241l7.869-37.637c0.902-4.246,1.802-9.912,2.295-13.636h9.998
		l-0.653,5.512h0.163c3.034-3.873,7.46-6.11,11.966-6.11c8.281,0,11.641,6.185,11.641,13.114c0,12.522-8.689,24.892-21.967,24.892
		c-2.788,0-5.329-0.595-6.638-1.342h-0.247l-3.114,15.206H99.911z M116.059,45.138c1.229,0.893,2.623,1.487,4.672,1.487
		c6.312,0,10.655-9.463,10.655-16.097c0-2.756-1.065-5.663-4.51-5.663c-3.933,0-7.621,4.247-8.931,10.657L116.059,45.138z"/>
	<path clip-path="url(#SVGID_2_)" fill="#173680" d="M203.616,7.426l-2.052,9.762h8.282l-1.639,7.677h-8.281l-2.95,13.639
		c-0.331,1.417-0.574,3.056-0.574,4.173c0,1.938,0.983,3.055,3.359,3.055c0.903,0,2.049,0,3.033-0.148l-1.312,7.974
		c-1.637,0.522-4.343,0.748-6.721,0.748c-6.72,0-9.998-3.208-9.998-7.902c0-1.864,0.245-3.872,0.821-6.407l3.195-15.13h-5.003
		l1.639-7.677h5.003l1.392-6.707L203.616,7.426z"/>
	<path clip-path="url(#SVGID_2_)" fill="#173680" d="M232.277,53.635c0.084-2.092,0.329-4.399,0.493-6.859h-0.245
		c-3.525,5.665-8.28,7.601-12.46,7.601c-6.805,0-11.148-4.918-11.148-12.146c0-13.79,6.519-25.336,27.01-25.336
		c4.51,0,9.265,0.82,12.378,1.717l-4.14,18.925c-0.984,4.621-1.72,11.7-1.641,16.1H232.277z M235.682,25.019
		c-0.903-0.223-1.886-0.299-2.869-0.299c-8.435,0-12.259,8.075-12.259,15.421c0,3.507,1.231,5.89,4.266,5.89
		c3.36,0,7.213-3.801,8.934-12.073L235.682,25.019z"/>
	<path clip-path="url(#SVGID_2_)" fill="#173680" d="M272.096,7.426l-2.053,9.762h8.279l-1.638,7.677h-8.28l-2.949,13.639
		c-0.327,1.417-0.573,3.056-0.573,4.173c0,1.938,0.98,3.055,3.362,3.055c0.898,0,2.047,0,3.032-0.148l-1.314,7.974
		c-1.638,0.522-4.345,0.748-6.72,0.748c-6.721,0-9.998-3.208-9.998-7.902c0-1.864,0.243-3.872,0.817-6.407l3.196-15.13h-4.999
		l1.639-7.677h5l1.393-6.707L272.096,7.426z"/>
	<path clip-path="url(#SVGID_2_)" fill="#173680" d="M344.235,53.635l5.164-24.597c0.982-4.47,1.558-8.493,2.131-11.85h9.919
		l-0.655,5.591h0.164c3.444-4.324,8.031-6.409,13.033-6.409c6.311,0,9.59,3.65,9.59,9.39c0,1.788-0.328,4.396-0.737,6.407
		l-4.505,21.468h-11.315l4.346-20.944c0.244-1.267,0.41-2.683,0.41-4.025c0-2.308-0.903-3.95-3.527-3.95
		c-3.438,0-7.54,4.024-9.096,11.774l-3.524,17.145H344.235z"/>
	<path clip-path="url(#SVGID_2_)" fill="#173680" d="M95.352,12.506h0.165c3.485,0,6.486-2.138,6.565-5.899
		c0-2.948-2.187-5.085-5.594-5.085c-3.568,0-6.407,2.58-6.407,5.899C90.081,10.444,92.191,12.506,95.352,12.506"/>
	<path clip-path="url(#SVGID_2_)" fill="#173680" d="M99.399,16.931H88.377l-4.733,22.562c-0.571,2.509-0.812,4.498-0.812,6.342
		c0,4.644,3.241,7.817,9.893,7.817c2.353,0,5.028-0.225,6.652-0.737l1.296-7.893c-0.973,0.149-2.109,0.149-3,0.149
		c-2.352,0-3.326-1.106-3.326-3.024c0-1.105,0.242-2.726,0.568-4.128L99.399,16.931z"/>
	<path clip-path="url(#SVGID_2_)" fill="#173680" d="M291.568,12.506h0.166c3.483,0,6.487-2.138,6.566-5.899
		c0-2.948-2.188-5.085-5.597-5.085c-3.567,0-6.403,2.58-6.403,5.899C286.3,10.444,288.409,12.506,291.568,12.506"/>
	<path clip-path="url(#SVGID_2_)" fill="#173680" d="M295.614,16.931h-11.021l-4.733,22.562c-0.569,2.509-0.813,4.498-0.813,6.342
		c0,4.644,3.243,7.817,9.895,7.817c2.354,0,5.028-0.225,6.651-0.737l1.297-7.893c-0.973,0.149-2.108,0.149-3.001,0.149
		c-2.351,0-3.323-1.106-3.323-3.024c0-1.105,0.239-2.726,0.565-4.128L295.614,16.931z"/>
	<path clip-path="url(#SVGID_2_)" fill="#173680" d="M25.514,25.079c-4.591-2.757-7.294-5.059-7.294-7.816
		c0-3.054,2.95-5.586,8.113-5.586c3.757-0.075,7.6,1.557,10.354,3.036l2.154-8.919l0.041-0.215
		C36.834,4.536,33.055,2.73,27.071,2.73c-13.005,0-20.578,5.935-20.578,16.173c0,5.888,4.593,10.35,9.92,13.481
		c4.592,2.608,6.887,3.959,6.887,6.938c0,3.953-3.932,6.114-8.525,6.038c-4.384,0-8.97-2.456-11.844-4.024l-2.265,9.383
		c2.488,1.451,7.069,3.521,13.288,3.587c12.401,0,21.231-4.662,21.231-16.77C35.185,32.093,31.58,28.433,25.514,25.079"/>
	<path clip-path="url(#SVGID_2_)" fill="#173680" d="M168.557,25.079c-4.591-2.757-7.296-5.059-7.296-7.816
		c0-3.054,2.95-5.586,8.114-5.586c3.758-0.075,7.6,1.557,10.356,3.036l2.151-8.919l0.043-0.215
		c-2.048-1.043-5.829-2.849-11.812-2.849c-13.006,0-20.576,5.935-20.576,16.173c0,5.888,4.592,10.35,9.919,13.481
		c4.591,2.608,6.885,3.959,6.885,6.938c0,3.953-3.931,6.114-8.523,6.038c-4.386,0-8.971-2.456-11.844-4.024l-2.265,9.383
		c2.487,1.451,7.068,3.521,13.288,3.587c12.4,0,21.231-4.662,21.231-16.77C178.228,32.093,174.621,28.433,168.557,25.079"/>
	<path clip-path="url(#SVGID_2_)" fill="#173680" d="M387.613,14.195c0-1.815,0.637-3.356,1.91-4.624
		c1.272-1.268,2.812-1.903,4.617-1.903c1.193,0,2.29,0.289,3.293,0.865c1.003,0.577,1.793,1.366,2.369,2.369
		c0.576,1.002,0.864,2.1,0.864,3.293c0,1.805-0.635,3.344-1.902,4.617c-1.269,1.274-2.811,1.91-4.624,1.91
		c-1.806,0-3.345-0.636-4.617-1.91C388.25,17.539,387.613,16,387.613,14.195 M388.47,14.195c0,1.564,0.554,2.9,1.662,4.008
		c1.106,1.108,2.442,1.662,4.008,1.662c1.554,0,2.882-0.556,3.985-1.669c1.103-1.113,1.654-2.447,1.654-4.001
		c0-1.564-0.549-2.895-1.647-3.993c-1.097-1.098-2.428-1.646-3.992-1.646c-1.574,0-2.913,0.547-4.016,1.639
		C389.021,11.287,388.47,12.621,388.47,14.195 M391.643,17.955v-7.489h3.054c0.651,0,1.207,0.21,1.668,0.631
		c0.462,0.421,0.693,0.967,0.693,1.639c0,0.723-0.231,1.274-0.693,1.655c-0.461,0.381-0.866,0.571-1.217,0.571l2.015,2.993h-1.232
		l-1.941-2.963h-1.354v2.963H391.643z M392.635,14.105h2.062c0.341,0,0.651-0.135,0.932-0.406c0.279-0.271,0.422-0.591,0.422-0.963
		c0-0.401-0.143-0.737-0.422-1.007c-0.28-0.271-0.591-0.406-0.932-0.406h-2.062V14.105z"/>
	<path clip-path="url(#SVGID_2_)" fill="#6CBE45" d="M324.777,57.917h-7.149l-0.945-6.242c-1.569-0.41-3.07-1.033-4.479-1.857
		l-5.079,3.749l-5.059-5.053l3.75-5.084c-0.821-1.398-1.443-2.901-1.855-4.479l-6.242-0.94v-7.151l6.24-0.944
		c0.415-1.579,1.038-3.08,1.857-4.478l-3.75-5.08l5.059-5.056l5.079,3.748c1.405-0.822,2.908-1.445,4.479-1.855l0.945-6.242h7.149
		l0.94,6.242c1.574,0.411,3.076,1.033,4.479,1.855l5.08-3.748l5.059,5.056l-3.748,5.081c0.82,1.401,1.443,2.903,1.854,4.477
		l6.242,0.944v7.151l-6.242,0.94c-0.41,1.575-1.033,3.077-1.854,4.478l3.748,5.082l-5.058,5.058l-5.081-3.748
		c-1.409,0.824-2.91,1.446-4.479,1.855L324.777,57.917z M321.201,26.583c-4.329,0-7.851,3.521-7.851,7.85
		c0,4.33,3.521,7.853,7.851,7.853s7.851-3.522,7.851-7.853C329.051,30.104,325.53,26.583,321.201,26.583"/>
</g>
</svg>
