<?xml version="1.0" encoding="utf-8"?>
<!-- Generator: Adobe Illustrator 15.1.0, SVG Export Plug-In . SVG Version: 6.00 Build 0)  -->
<!DOCTYPE svg PUBLIC "-//W3C//DTD SVG 1.1//EN" "http://www.w3.org/Graphics/SVG/1.1/DTD/svg11.dtd" [
	<!ENTITY ns_extend "http://ns.adobe.com/Extensibility/1.0/">
	<!ENTITY ns_ai "http://ns.adobe.com/AdobeIllustrator/10.0/">
	<!ENTITY ns_graphs "http://ns.adobe.com/Graphs/1.0/">
	<!ENTITY ns_vars "http://ns.adobe.com/Variables/1.0/">
	<!ENTITY ns_imrep "http://ns.adobe.com/ImageReplacement/1.0/">
	<!ENTITY ns_sfw "http://ns.adobe.com/SaveForWeb/1.0/">
	<!ENTITY ns_custom "http://ns.adobe.com/GenericCustomNamespace/1.0/">
	<!ENTITY ns_adobe_xpath "http://ns.adobe.com/XPath/1.0/">
]>
<svg version="1.1" id="Layer_1" xmlns:x="&ns_extend;" xmlns:i="&ns_ai;" xmlns:graph="&ns_graphs;"
	 xmlns="http://www.w3.org/2000/svg" xmlns:xlink="http://www.w3.org/1999/xlink" x="0px" y="0px" width="224.714px"
	 height="99.564px" viewBox="0 0 224.714 99.564" enable-background="new 0 0 224.714 99.564" xml:space="preserve">
<metadata>
	<sfw  xmlns="&ns_sfw;">
		<slices></slices>
		<sliceSourceBounds  y="-13.752" x="37.581" width="224.714" height="99.564" bottomLeftOrigin="true"></sliceSourceBounds>
	</sfw>
</metadata>
<g>
	<path fill-rule="evenodd" clip-rule="evenodd" fill="#30891E" d="M157.552,2.417c1.669,6.23-3.025,12.391-8.814,11.018
		C139.888,11.335,150.72-6.334,157.552,2.417z M152.411,5.723c0.376,0.358,0.743,0.726,1.103,1.102
		C159.828,6.403,152.446-0.98,152.411,5.723z"/>
	<path fill-rule="evenodd" clip-rule="evenodd" fill="#30891E" d="M42.968,3.519c-0.62,10.644-2.618,23.089-3.672,34.522
		c1.886-3.47,11.671-9.515,16.526-4.774c5.255,5.13-1.268,16.915,0.368,25.341c-3.801,0.972-8.23,1.318-12.12,2.203
		c0.044-6.436,3.684-15.71,0-20.2c-8.581,0.724-5.734,12.874-6.61,21.301c-2.749,0.435-5.687,0.679-8.08,1.469
		c-1.975-15.434-1.22-35.731-0.367-51.783C33.799,9.039,38.128,6.023,42.968,3.519z"/>
	<path fill-rule="evenodd" clip-rule="evenodd" fill="#30891E" d="M224.025,3.519c1.768,0.833-0.481,3.559,0,5.509
		c-0.928,0.786-2.917,0.511-4.039,1.102c1.362,12.333-8.903,16.015-19.465,17.628c0.997,3.124,5.14,1.155,7.713,0.735
		c5.695-0.93,12.504-2.581,13.955,3.305c2.965,12.021-9.125,18.026-18.729,19.098c0.553-2.018,1.534-3.607,2.203-5.509
		c3.788-0.405,7.515-2.729,6.61-6.611c-5.445-2.708-13.111,3.242-17.995,0c-2.276-1.512-2.669-5.225-1.469-8.08
		c0.541-1.288,3.326-3.575,3.305-4.04c-0.033-0.746-3.683-3.205-4.039-4.774c-2.115-9.284,7.985-15.656,16.159-16.526
		c6.296-0.671,9.814,1.05,15.425-1.836C223.781,3.519,223.904,3.519,224.025,3.519z M204.194,21.148
		c4.445,1.958,6.503-5.03,4.406-8.447C203.809,10.583,200.902,18.59,204.194,21.148z"/>
	<path fill-rule="evenodd" clip-rule="evenodd" fill="#30891E" d="M68.677,14.537c11.3-2.129,4.501,16.513-4.041,12.487
		C58.746,24.247,64.037,15.411,68.677,14.537z M72.716,17.108C64.271,16.352,74.101,25.198,72.716,17.108L72.716,17.108z"/>
	<path fill-rule="evenodd" clip-rule="evenodd" fill="#30891E" d="M156.451,14.904c-0.192,8.377-2.012,18.309-2.571,27.544
		c-3.96,0.569-7.614,1.444-11.752,1.836c1.431-8.485,2.475-17.357,2.57-27.177C148.635,16.394,152.992,16.098,156.451,14.904z"/>
	<path fill-rule="evenodd" clip-rule="evenodd" fill="#30891E" d="M120.459,44.285c0.112,2.315-0.058,4.349-0.367,6.244
		c-4.503,0.026-8.126,0.932-11.385,2.203c1.01-9.64,2.097-19.204,2.57-29.38c3.594-1.058,7.988-1.316,11.752-2.203
		c-0.241,1.349-0.713,2.469-0.733,4.04c4.192-8.917,17.94-9.499,19.464,1.102c1.375,9.563-4.953,22.824-15.792,21.668
		C123.279,47.67,122.182,46.198,120.459,44.285z M122.296,40.612c5.983,3.496,10.073-8.735,6.609-13.588
		C121.627,23.579,117.887,38.037,122.296,40.612z"/>
	<path fill-rule="evenodd" clip-rule="evenodd" fill="#30891E" d="M86.305,49.793c-0.079,2.002,0.253,4.416-0.367,5.876
		c-4.681,0.828-8.272,2.745-11.752,4.773c1.412-10.095,2.38-20.635,2.938-31.583c3.96-0.569,7.615-1.444,11.751-1.836
		c-0.258,1.209-0.59,2.348-0.734,3.672c4.274-8.74,17.953-8.924,19.465,1.102c1.448,9.605-5.573,24.544-17.261,21.669
		C88.542,53.022,87.62,51.443,86.305,49.793z M87.773,46.121c7.469,2.591,9.747-7.913,6.978-13.221
		C87.325,30.359,84.975,40.753,87.773,46.121z"/>
	<path fill-rule="evenodd" clip-rule="evenodd" fill="#30891E" d="M73.083,28.86c0.478,3.452-0.624,8.445-1.102,13.221
		c-0.487,4.868-0.923,9.896-1.469,14.323c-4.051,0.478-7.7,1.357-11.752,1.836c1.356-8.56,2.427-17.405,2.571-27.177
		C65.064,30.144,69.389,29.816,73.083,28.86z"/>
	<path fill-rule="evenodd" clip-rule="evenodd" fill="#30891E" d="M26.075,38.776c-0.589,2.594-1.603,4.763-2.571,6.978
		c-2.335-0.77-8.434-3.156-9.549,0.367c3.755,3.608,10.866,1.803,11.752,7.712C27.424,65.278,9.036,71.452,0,64.483
		c1.101-2.204,2.204-4.406,3.305-6.61c2.548,1.02,9.266,4.878,10.65,0.367c-3.162-3.279-9.675-1.927-10.65-6.978
		C1.371,41.239,16.042,34.001,26.075,38.776z"/>
	<path fill-rule="evenodd" clip-rule="evenodd" fill="#30891E" d="M187.667,42.448c0.313-0.067,0.346,0.144,0.367,0.368
		c0.416,0.069,0.203,0.368,0,0.367c-7.061,41.81-48.065,58.388-98.057,56.19c-15.246-0.67-27.254-4.957-37.827-11.018
		c-2.184,1.979-3.354,4.971-4.407,8.079c-2.128,0.17-3.306-0.611-5.142-0.733C44,81.308,52.222,73.737,62.801,68.523
		c1.881,1.913,2.139,5.451,3.672,7.713c-2.988,2.521-7.104,3.913-9.548,6.978c23.429,14.979,73.941,10.654,96.589-3.306
		c4.623-2.85,10.676-7.002,11.385-11.752c1.096-7.356-4.377-9.82-9.916-11.385c0.981-3.303,2.435-6.135,3.673-9.181
		c7.622,1.436,12.659,5.458,15.057,12.12c2.13-3.991,2.579-9.664,2.938-15.425C180.431,43.782,184.284,43.35,187.667,42.448z"/>
	<path fill-rule="evenodd" clip-rule="evenodd" fill="#30891E" d="M154.248,50.161c-0.626,2.557-1.859,4.506-2.571,6.978
		c-2.208-0.898-8.466-3.124-9.549,0.367c3.286,3.329,9.797,1.824,11.386,6.243c4.165,11.593-16.014,19.295-25.342,12.119
		c0.903-2.279,2.442-3.924,2.938-6.61c2.861,0.542,8.628,4.429,11.018,0.734c-2.568-4.066-9.491-2.146-10.65-7.345
		C129.244,52.633,144.356,45.406,154.248,50.161z"/>
	<path fill-rule="evenodd" clip-rule="evenodd" fill="#30891E" d="M125.234,80.644c-3.598,0.319-6.511,1.323-10.283,1.469
		c0-1.469,0-2.938,0-4.408c-1.47,5.469-16.885,10.992-17.628,2.204c-0.877-10.374,13.169-10.881,18.362-16.526
		c-4.216-5.268-11.01,2.906-14.69,4.04c0.211-2.175-1.641-4.292-1.102-6.243c0.827-2.995,11.036-6.883,14.69-7.346
		C131.519,51.69,124.819,67.265,125.234,80.644z M109.442,76.604c4.102,0.95,5.798-5.397,5.876-8.447
		C113.238,70.85,108.777,71.164,109.442,76.604z"/>
	<path fill-rule="evenodd" clip-rule="evenodd" fill="#30891E" d="M81.163,76.236c-0.153,1.744,0.179,3.004,0.735,4.04
		c5.381,1.735,9.288-2.873,12.486-3.307c0.024,2.181,0.956,3.452,1.102,5.51c-7.115,6.953-25.687,9.817-26.075-4.04
		c-0.319-11.396,8.595-20.352,19.097-20.199c3.564,0.052,7.657,1.835,8.079,5.876C97.483,72.671,88.585,76.776,81.163,76.236z
		 M81.53,72.563c4.399,0.038,7.405-3.018,6.243-7.345C82.883,64.857,82.073,68.576,81.53,72.563z"/>
	<path fill-rule="evenodd" clip-rule="evenodd" fill="#30891E" d="M188.402,36.572c-3.801,0.973-8.229,1.319-12.119,2.204
		c-0.434-4.833,4.984-18.929-0.367-20.199c-6.981-1.657-5.807,14.422-6.611,21.301c-3.96,0.569-7.614,1.443-11.752,1.836
		c1.246-8.547,2.385-17.203,2.938-26.442c3.443-1.208,7.789-1.514,11.752-2.204c0.18,1.159-0.662,1.297-0.367,2.571
		c3.165-4.927,17.063-10.097,17.995,0.734C190.437,22.951,187.853,28.987,188.402,36.572z"/>
</g>
</svg>
