<?xml version="1.0" encoding="utf-8"?>
<!-- Generator: Adobe Illustrator 15.1.0, SVG Export Plug-In . SVG Version: 6.00 Build 0)  -->
<!DOCTYPE svg PUBLIC "-//W3C//DTD SVG 1.1//EN" "http://www.w3.org/Graphics/SVG/1.1/DTD/svg11.dtd">
<svg version="1.1" id="Layer_1" xmlns="http://www.w3.org/2000/svg" xmlns:xlink="http://www.w3.org/1999/xlink" x="0px" y="0px"
	 width="116.151px" height="32.944px" viewBox="0 0 116.151 32.944" enable-background="new 0 0 116.151 32.944"
	 xml:space="preserve">
<g>
	<path fill-rule="evenodd" clip-rule="evenodd" d="M104.218,6.275c-0.168,1.098-0.495,2.037-0.723,3.074
		c-2.43-0.769-3.601,1.034-3.797,3.074c0.724,0.21,1.838,0.031,2.712,0.09c-0.065,1.05-0.364,1.866-0.452,2.893
		c-0.904,0-1.808,0-2.712,0c-0.818,3.642-1.448,7.473-2.17,11.21c-1.296,0-2.592,0-3.887,0c0.657-3.742,1.368-7.432,2.079-11.12
		c-0.423-0.209-1.235-0.031-1.808-0.09c0.13-1.015,0.339-1.951,0.542-2.893c0.603,0,1.206,0,1.808,0
		C96.264,8.226,99.111,5.021,104.218,6.275z"/>
	<path fill-rule="evenodd" clip-rule="evenodd" d="M50.789,6.275c-0.416,2.719-1.05,5.218-1.447,7.956
		c1.937-2.405,7.258-3.287,7.504,1.266c0.21,3.896-1.666,7.5-1.808,11.12c-1.326,0-2.652,0-3.978,0
		c0.372-1.469,0.561-3.212,0.904-4.972c0.425-2.179,1.505-4.875,0.091-6.238c-2.567-0.267-3.474,2.598-3.888,4.701
		c-0.462,2.347-0.831,4.675-1.175,6.509c-1.295,0-2.591,0-3.887,0c1.229-6.848,2.47-13.682,3.887-20.341
		C48.257,6.275,49.523,6.275,50.789,6.275z"/>
	<path fill-rule="evenodd" clip-rule="evenodd" d="M90.838,6.546c3.404-0.593,2.749,4.791-0.452,4.159
		C88.288,10.291,88.742,6.911,90.838,6.546z"/>
	<path fill-rule="evenodd" clip-rule="evenodd" d="M65.795,12.242c2.135-0.039,3.989,0.977,4.792,2.531
		c1.744,3.376-0.007,8.344-2.441,10.396c-3.59,3.028-9.801,1.969-10.216-3.345c-0.342-4.396,2.333-8.105,5.334-9.221
		C63.977,12.338,64.968,12.256,65.795,12.242z M62.722,23.542c1.657,1.307,3.236-0.75,3.797-2.079
		c0.758-1.796,1.654-6.966-1.718-6.147C62.563,15.859,60.8,22.027,62.722,23.542z"/>
	<path fill-rule="evenodd" clip-rule="evenodd" d="M75.469,26.344c-0.552,1.798-0.785,3.917-1.175,5.876c-1.295,0-2.591,0-3.887,0
		c1.096-6.678,2.623-12.925,3.525-19.798c1.145,0,2.29,0,3.436,0c-0.01,0.744-0.202,1.305-0.181,2.08
		c1.101-1.64,4.623-3.424,6.871-1.447c0.929,0.816,1.345,2.179,1.447,3.345C86.02,22.312,81.547,28.613,75.469,26.344z
		 M81.436,17.033c-0.282-1.806-2.165-1.949-3.254-0.904c-1.468,1.409-1.815,4.934-2.169,7.232
		C79.383,25.697,81.903,20.021,81.436,17.033z"/>
	<path fill-rule="evenodd" clip-rule="evenodd" d="M32.165,25.893c0.291-0.915,0.669-1.742,0.904-2.712
		c1.217,0.498,4.688,1.646,5.063-0.271c0.368-1.885-2.322-2.381-3.345-3.526c-0.447-0.5-0.826-1.313-0.904-1.899
		c-0.604-4.529,4.935-6.336,9.131-4.61c-0.24,0.935-0.645,1.706-0.814,2.712c-1.07-0.425-4.485-1.092-4.43,0.904
		c0.017,0.606,0.818,1.274,1.537,1.718c1.215,0.748,2.279,1.398,2.712,2.712C43.644,25.851,36.472,28.383,32.165,25.893z"/>
	<path fill-rule="evenodd" clip-rule="evenodd" d="M92.285,12.513c-0.793,4.783-1.825,9.325-2.622,14.103c-1.326,0-2.652,0-3.978,0
		c1.01-4.625,1.692-9.579,2.803-14.103C89.753,12.513,91.019,12.513,92.285,12.513z"/>
	<path fill-rule="evenodd" clip-rule="evenodd" d="M103.313,12.513c1.356,0,2.712,0,4.068,0c0.377,3.179,0.697,6.415,0.994,9.674
		c1.352-3.109,2.434-6.487,3.707-9.674c1.357,0,2.712,0,4.069,0c-1.887,3.722-3.419,8.007-5.424,11.753
		c-1.95,3.644-4.119,7.48-8.498,8.679c-0.299-1.087-0.672-2.1-0.995-3.164c1.39-0.799,4.095-2.06,4.43-3.797
		c0.16-0.833-0.323-2.159-0.543-3.346C104.519,19.388,103.851,15.328,103.313,12.513z"/>
</g>
<g id="Layer_1_1_">
	<g>
		<path fill-rule="evenodd" clip-rule="evenodd" fill="#9ABD2D" d="M24.537,6.203c-0.022-0.16-0.162-0.249-0.278-0.259
			c-0.116-0.009-2.564-0.191-2.564-0.191s-1.701-1.688-1.888-1.875c-0.186-0.187-0.551-0.13-0.692-0.088
			c-0.021,0.006-0.372,0.114-0.951,0.293c-0.569-1.635-1.571-3.137-3.336-3.137c-0.048,0-0.099,0.002-0.148,0.005
			C14.178,0.289,13.555,0,13.019,0C8.91,0,6.947,5.137,6.332,7.747C4.735,8.242,3.602,8.593,3.456,8.64
			C2.565,8.918,2.537,8.946,2.419,9.786C2.331,10.422,0,28.455,0,28.455l18.17,3.404l9.845-2.13
			C28.015,29.729,24.559,6.363,24.537,6.203z M7.599,7.354c0.699-2.377,2.356-6.252,5.307-6.252c0.178,0,0.356,0.061,0.528,0.178
			c-1.316,0.62-2.729,2.18-3.324,5.297L7.599,7.354z M14.543,5.204c-1,0.31-2.086,0.647-3.175,0.984
			c0.611-2.36,1.758-3.5,2.759-3.929c0.252,0.633,0.417,1.542,0.417,2.767C14.544,5.089,14.544,5.146,14.543,5.204z M15.62,4.871
			c0.001-0.109,0.001-0.216,0.001-0.333c0-1.016-0.141-1.833-0.366-2.482c0.908,0.114,1.514,1.148,1.903,2.338L15.62,4.871z"/>
	</g>
</g>
<g id="Layer_2">
	<g>
		<path fill-rule="evenodd" clip-rule="evenodd" fill="#628C2D" d="M24.537,6.203c-0.022-0.16-0.162-0.249-0.278-0.259
			c-0.116-0.009-2.564-0.191-2.564-0.191s-1.701-1.688-1.888-1.875c-0.069-0.07-0.164-0.105-0.261-0.121L18.17,31.859l9.845-2.13
			C28.015,29.729,24.559,6.363,24.537,6.203z"/>
	</g>
</g>
<g id="Layer_3">
	<g>
		<path fill-rule="evenodd" clip-rule="evenodd" fill="#FFFFFF" d="M11.247,14.429c1.304,0,2.367,0.567,2.367,0.567l1.213-3.611
			c0,0-0.82-0.476-2.48-0.476c-4.311,0-6.446,2.879-6.446,5.854c0,3.535,3.526,3.631,3.526,5.782c0,0.52-0.368,1.231-1.272,1.231
			c-1.382,0-3.022-1.407-3.022-1.407l-0.836,2.76c0,0,1.596,1.94,4.715,1.94c2.599,0,4.527-1.957,4.527-4.996
			c0-3.863-4.3-4.495-4.3-6.145C9.238,15.628,9.336,14.429,11.247,14.429z"/>
	</g>
</g>
</svg>
